<svg xmlns="http://www.w3.org/2000/svg" viewBox="0 0 1600 1200" font-family="system-ui, -apple-system, sans-serif">
  <defs>
    <marker id="arrow-client" markerWidth="10" markerHeight="7" refX="10" refY="3.5" orient="auto">
      <polygon points="0 0, 10 3.5, 0 7" fill="#059669"/>
    </marker>
    <marker id="arrow-driver" markerWidth="10" markerHeight="7" refX="10" refY="3.5" orient="auto">
      <polygon points="0 0, 10 3.5, 0 7" fill="#d97706"/>
    </marker>
    <marker id="arrow-admin" markerWidth="10" markerHeight="7" refX="10" refY="3.5" orient="auto">
      <polygon points="0 0, 10 3.5, 0 7" fill="#7c3aed"/>
    </marker>
    <marker id="arrow-bot" markerWidth="10" markerHeight="7" refX="10" refY="3.5" orient="auto">
      <polygon points="0 0, 10 3.5, 0 7" fill="#0891b2"/>
    </marker>
    <marker id="arrow-system" markerWidth="10" markerHeight="7" refX="10" refY="3.5" orient="auto">
      <polygon points="0 0, 10 3.5, 0 7" fill="#78716c"/>
    </marker>
    <linearGradient id="g-client" x1="0%" y1="0%" x2="100%" y2="100%">
      <stop offset="0%" style="stop-color:#059669;stop-opacity:1"/>
      <stop offset="100%" style="stop-color:#10b981;stop-opacity:1"/>
    </linearGradient>
    <linearGradient id="g-driver" x1="0%" y1="0%" x2="100%" y2="100%">
      <stop offset="0%" style="stop-color:#d97706;stop-opacity:1"/>
      <stop offset="100%" style="stop-color:#f59e0b;stop-opacity:1"/>
    </linearGradient>
    <linearGradient id="g-admin" x1="0%" y1="0%" x2="100%" y2="100%">
      <stop offset="0%" style="stop-color:#7c3aed;stop-opacity:1"/>
      <stop offset="100%" style="stop-color:#8b5cf6;stop-opacity:1"/>
    </linearGradient>
    <linearGradient id="g-bot" x1="0%" y1="0%" x2="100%" y2="100%">
      <stop offset="0%" style="stop-color:#0891b2;stop-opacity:1"/>
      <stop offset="100%" style="stop-color:#06b6d4;stop-opacity:1"/>
    </linearGradient>
    <linearGradient id="g-system" x1="0%" y1="0%" x2="100%" y2="100%">
      <stop offset="0%" style="stop-color:#78716c;stop-opacity:1"/>
      <stop offset="100%" style="stop-color:#a8a29e;stop-opacity:1"/>
    </linearGradient>
    <filter id="shadow" x="-5%" y="-5%" width="110%" height="110%">
      <feDropShadow dx="2" dy="3" stdDeviation="4" flood-opacity="0.15"/>
    </filter>
    <filter id="shadow-light" x="-5%" y="-5%" width="110%" height="110%">
      <feDropShadow dx="1" dy="2" stdDeviation="3" flood-opacity="0.1"/>
    </filter>
  </defs>

  <!-- Background -->
  <rect width="1600" height="1200" fill="#f8fafc" rx="8"/>
  <rect x="20" y="20" width="1560" height="1160" fill="none" stroke="#e2e8f0" stroke-width="2" rx="8"/>

  <!-- Title -->
  <text x="800" y="65" text-anchor="middle" font-size="26" font-weight="bold" fill="#1e293b">Diagrama de Entidades — TaxiGuazú Traslados</text>
  <text x="800" y="90" text-anchor="middle" font-size="13" fill="#64748b">Actores, funciones y relaciones con las entidades del sistema</text>

  <!-- ============================================ -->
  <!-- ACTORS COLUMN -->
  <!-- ============================================ -->

  <!-- === CLIENT === -->
  <rect x="40" y="115" width="280" height="195" rx="10" fill="white" stroke="#059669" stroke-width="2" filter="url(#shadow)"/>
  <rect x="40" y="115" width="280" height="40" rx="10" fill="url(#g-client)"/>
  <rect x="40" y="145" width="280" height="10" fill="url(#g-client)"/>
  <text x="180" y="142" text-anchor="middle" font-size="15" font-weight="bold" fill="white">👤 Cliente (Pasajero)</text>
  <text x="58" y="175" font-size="11" fill="#059669" font-weight="bold">Funciones:</text>
  <text x="62" y="192" font-size="10.5" fill="#334155">• Consultar precio de traslado</text>
  <text x="62" y="207" font-size="10.5" fill="#334155">• Confirmar / reservar viaje</text>
  <text x="62" y="222" font-size="10.5" fill="#334155">• Solicitar descuento</text>
  <text x="62" y="237" font-size="10.5" fill="#334155">• Elegir horario (reservas)</text>
  <text x="62" y="252" font-size="10.5" fill="#334155">• Solicitar atención humana</text>
  <text x="62" y="267" font-size="10.5" fill="#334155">• Responder encuesta post-viaje</text>
  <text x="62" y="282" font-size="10.5" fill="#334155">• Agregar parada / cambiar destino</text>
  <text x="62" y="297" font-size="10.5" fill="#334155">• Recibir notificación de llegada</text>

  <!-- === DRIVER === -->
  <rect x="40" y="330" width="280" height="175" rx="10" fill="white" stroke="#d97706" stroke-width="2" filter="url(#shadow)"/>
  <rect x="40" y="330" width="280" height="40" rx="10" fill="url(#g-driver)"/>
  <rect x="40" y="360" width="280" height="10" fill="url(#g-driver)"/>
  <text x="180" y="357" text-anchor="middle" font-size="15" font-weight="bold" fill="white">🚗 Chofer</text>
  <text x="58" y="390" font-size="11" fill="#d97706" font-weight="bold">Funciones:</text>
  <text x="62" y="407" font-size="10.5" fill="#334155">• Registrarse con código</text>
  <text x="62" y="422" font-size="10.5" fill="#334155">• Recibir ofertas de viaje</text>
  <text x="62" y="437" font-size="10.5" fill="#334155">• Aceptar viaje (botón ✅)</text>
  <text x="62" y="452" font-size="10.5" fill="#334155">• Notificar llegada ("llegué")</text>
  <text x="62" y="467" font-size="10.5" fill="#334155">• Configurar idiomas / guía</text>
  <text x="62" y="482" font-size="10.5" fill="#334155">• Crear descuentos promocionales</text>
  <text x="62" y="497" font-size="10.5" fill="#334155">• Consultar tarifas</text>

  <!-- === ADMIN === -->
  <rect x="40" y="525" width="280" height="195" rx="10" fill="white" stroke="#7c3aed" stroke-width="2" filter="url(#shadow)"/>
  <rect x="40" y="525" width="280" height="40" rx="10" fill="url(#g-admin)"/>
  <rect x="40" y="555" width="280" height="10" fill="url(#g-admin)"/>
  <text x="180" y="552" text-anchor="middle" font-size="15" font-weight="bold" fill="white">🔧 Admin / Titular</text>
  <text x="58" y="585" font-size="11" fill="#7c3aed" font-weight="bold">Funciones:</text>
  <text x="62" y="602" font-size="10.5" fill="#334155">• Crear / desactivar choferes</text>
  <text x="62" y="617" font-size="10.5" fill="#334155">• Tomar / liberar conversaciones</text>
  <text x="62" y="632" font-size="10.5" fill="#334155">• Enviar mensajes como humano</text>
  <text x="62" y="647" font-size="10.5" fill="#334155">• Dashboard web: monitoreo en vivo</text>
  <text x="62" y="662" font-size="10.5" fill="#334155">• Gestionar slots de reserva</text>
  <text x="62" y="677" font-size="10.5" fill="#334155">• Ver QR de conexión WhatsApp</text>
  <text x="62" y="692" font-size="10.5" fill="#334155">• Recibir notificaciones críticas</text>
  <text x="62" y="707" font-size="10.5" fill="#334155">• Configurar tarifas y precios</text>

  <!-- === AI BOT === -->
  <rect x="40" y="740" width="280" height="155" rx="10" fill="white" stroke="#0891b2" stroke-width="2" filter="url(#shadow)"/>
  <rect x="40" y="740" width="280" height="40" rx="10" fill="url(#g-bot)"/>
  <rect x="40" y="770" width="280" height="10" fill="url(#g-bot)"/>
  <text x="180" y="767" text-anchor="middle" font-size="15" font-weight="bold" fill="white">🤖 Bot IA (Groq LLM)</text>
  <text x="58" y="800" font-size="11" fill="#0891b2" font-weight="bold">Funciones:</text>
  <text x="62" y="817" font-size="10.5" fill="#334155">• Responder consultas en ES/PT/EN</text>
  <text x="62" y="832" font-size="10.5" fill="#334155">• Extraer datos del viaje con regex</text>
  <text x="62" y="847" font-size="10.5" fill="#334155">• Calcular precios y descuentos</text>
  <text x="62" y="862" font-size="10.5" fill="#334155">• Detectar urgencia (ahora/reserva/consulta)</text>
  <text x="62" y="877" font-size="10.5" fill="#334155">• Ofrecer promociones de choferes</text>
  <text x="62" y="892" font-size="10.5" fill="#334155">• Detectar cambio de destino</text>

  <!-- === SYSTEM === -->
  <rect x="40" y="915" width="280" height="135" rx="10" fill="white" stroke="#78716c" stroke-width="2" filter="url(#shadow)"/>
  <rect x="40" y="915" width="280" height="40" rx="10" fill="url(#g-system)"/>
  <rect x="40" y="945" width="280" height="10" fill="url(#g-system)"/>
  <text x="180" y="942" text-anchor="middle" font-size="15" font-weight="bold" fill="white">⚙️ Sistema (Automático)</text>
  <text x="58" y="975" font-size="11" fill="#78716c" font-weight="bold">Funciones:</text>
  <text x="62" y="992" font-size="10.5" fill="#334155">• Timeouts: preferred → backup → grupo</text>
  <text x="62" y="1007" font-size="10.5" fill="#334155">• Encuestas post-viaje (24h)</text>
  <text x="62" y="1022" font-size="10.5" fill="#334155">• Broadcast de viajes a choferes</text>
  <text x="62" y="1037" font-size="10.5" fill="#334155">• Auto-reconexión WhatsApp</text>

  <!-- ============================================ -->
  <!-- ENTITIES COLUMN -->
  <!-- ============================================ -->

  <!-- Section label -->
  <text x="740" y="118" font-size="14" font-weight="bold" fill="#475569">🗄️ Entidades de Base de Datos</text>
  <line x1="420" y1="126" x2="1060" y2="126" stroke="#cbd5e1" stroke-width="1"/>

  <!-- Entity box helper: w=170 h=44 -->
  <!-- Row 1 -->
  <!-- conversations -->
  <rect x="420" y="140" width="175" height="48" rx="8" fill="white" stroke="#94a3b8" stroke-width="1.5" filter="url(#shadow-light)"/>
  <text x="507" y="160" text-anchor="middle" font-size="11" font-weight="bold" fill="#1e293b">conversations</text>
  <text x="507" y="177" text-anchor="middle" font-size="9" fill="#64748b">Chat sessions por cliente</text>

  <!-- messages -->
  <rect x="615" y="140" width="175" height="48" rx="8" fill="white" stroke="#94a3b8" stroke-width="1.5" filter="url(#shadow-light)"/>
  <text x="702" y="160" text-anchor="middle" font-size="11" font-weight="bold" fill="#1e293b">messages</text>
  <text x="702" y="177" text-anchor="middle" font-size="9" fill="#64748b">Mensajes individuales</text>

  <!-- trips -->
  <rect x="810" y="140" width="175" height="48" rx="8" fill="white" stroke="#94a3b8" stroke-width="1.5" filter="url(#shadow-light)"/>
  <text x="897" y="160" text-anchor="middle" font-size="11" font-weight="bold" fill="#1e293b">trips</text>
  <text x="897" y="177" text-anchor="middle" font-size="9" fill="#64748b">Viajes / servicios</text>

  <!-- drivers -->
  <rect x="1005" y="140" width="175" height="48" rx="8" fill="white" stroke="#94a3b8" stroke-width="1.5" filter="url(#shadow-light)"/>
  <text x="1092" y="160" text-anchor="middle" font-size="11" font-weight="bold" fill="#1e293b">drivers</text>
  <text x="1092" y="177" text-anchor="middle" font-size="9" fill="#64748b">Choferes registrados</text>

  <!-- Row 2 -->
  <rect x="420" y="210" width="175" height="48" rx="8" fill="white" stroke="#94a3b8" stroke-width="1.5" filter="url(#shadow-light)"/>
  <text x="507" y="230" text-anchor="middle" font-size="11" font-weight="bold" fill="#1e293b">workflows</text>
  <text x="507" y="247" text-anchor="middle" font-size="9" fill="#64748b">Máquina de estados</text>

  <rect x="615" y="210" width="175" height="48" rx="8" fill="white" stroke="#94a3b8" stroke-width="1.5" filter="url(#shadow-light)"/>
  <text x="702" y="230" text-anchor="middle" font-size="11" font-weight="bold" fill="#1e293b">tariffs</text>
  <text x="702" y="247" text-anchor="middle" font-size="9" fill="#64748b">Tarifas oficiales</text>

  <rect x="810" y="210" width="175" height="48" rx="8" fill="white" stroke="#94a3b8" stroke-width="1.5" filter="url(#shadow-light)"/>
  <text x="897" y="230" text-anchor="middle" font-size="11" font-weight="bold" fill="#1e293b">driver_codes</text>
  <text x="897" y="247" text-anchor="middle" font-size="9" fill="#64748b">Códigos registro</text>

  <rect x="1005" y="210" width="175" height="48" rx="8" fill="white" stroke="#94a3b8" stroke-width="1.5" filter="url(#shadow-light)"/>
  <text x="1092" y="230" text-anchor="middle" font-size="11" font-weight="bold" fill="#1e293b">reservation_slots</text>
  <text x="1092" y="247" text-anchor="middle" font-size="9" fill="#64748b">Franjas horarias</text>

  <!-- Row 3 -->
  <rect x="420" y="280" width="175" height="48" rx="8" fill="white" stroke="#94a3b8" stroke-width="1.5" filter="url(#shadow-light)"/>
  <text x="507" y="300" text-anchor="middle" font-size="11" font-weight="bold" fill="#1e293b">client_preferred_drivers</text>
  <text x="507" y="317" text-anchor="middle" font-size="9" fill="#64748b">Preferencias de cliente</text>

  <rect x="615" y="280" width="175" height="48" rx="8" fill="white" stroke="#94a3b8" stroke-width="1.5" filter="url(#shadow-light)"/>
  <text x="702" y="300" text-anchor="middle" font-size="11" font-weight="bold" fill="#1e293b">package_prices</text>
  <text x="702" y="317" text-anchor="middle" font-size="9" fill="#64748b">Precios paquete x chofer</text>

  <rect x="810" y="280" width="175" height="48" rx="8" fill="white" stroke="#94a3b8" stroke-width="1.5" filter="url(#shadow-light)"/>
  <text x="897" y="300" text-anchor="middle" font-size="11" font-weight="bold" fill="#1e293b">driver_discounts</text>
  <text x="897" y="317" text-anchor="middle" font-size="9" fill="#64748b">Descuentos de chofer</text>

  <rect x="1005" y="280" width="175" height="48" rx="8" fill="white" stroke="#94a3b8" stroke-width="1.5" filter="url(#shadow-light)"/>
  <text x="1092" y="300" text-anchor="middle" font-size="11" font-weight="bold" fill="#1e293b">connection_state</text>
  <text x="1092" y="317" text-anchor="middle" font-size="9" fill="#64748b">Estado WhatsApp</text>

  <!-- ============================================ -->
  <!-- RELATIONSHIPS (entity-entity) -->
  <!-- ============================================ -->

  <!-- conversations 1──N messages -->
  <line x1="595" y1="164" x2="615" y2="164" stroke="#64748b" stroke-width="1.5" stroke-dasharray="4,3"/>
  <text x="605" y="158" text-anchor="middle" font-size="8" fill="#64748b">1─N</text>

  <!-- conversations 1──1 workflows -->
  <line x1="420" y1="188" x2="420" y2="210" stroke="#64748b" stroke-width="1.5" stroke-dasharray="4,3"/>
  <text x="412" y="202" text-anchor="middle" font-size="8" fill="#64748b">1─1</text>

  <!-- trips N──1 drivers (assigned_driver) -->
  <line x1="985" y1="164" x2="1005" y2="164" stroke="#64748b" stroke-width="1.5" stroke-dasharray="4,3"/>
  <text x="995" y="158" text-anchor="middle" font-size="8" fill="#64748b">N─1</text>

  <!-- tariffs 1──N trips -->
  <line x1="702" y1="210" x2="702" y2="188" stroke="#64748b" stroke-width="1.5" stroke-dasharray="4,3"/>
  <text x="694" y="202" text-anchor="middle" font-size="8" fill="#64748b">1─N</text>

  <!-- drivers 1──N driver_codes -->
  <line x1="897" y1="210" x2="897" y2="188" stroke="#64748b" stroke-width="1.5" stroke-dasharray="4,3"/>
  <text x="889" y="202" text-anchor="middle" font-size="8" fill="#64748b">1─N</text>

  <!-- drivers N──N tariffs via driver_discounts -->
  <rect x="860" y="263" width="75" height="16" rx="4" fill="#f1f5f9" stroke="#cbd5e1" stroke-width="1"/>
  <text x="897" y="275" text-anchor="middle" font-size="8" fill="#64748b">driver_discounts</text>

  <!-- drivers 1──N package_prices -->
  <line x1="702" y1="280" x2="702" y2="258" stroke="#64748b" stroke-width="1.5" stroke-dasharray="4,3"/>
  <text x="694" y="272" text-anchor="middle" font-size="8" fill="#64748b">1─N</text>

  <!-- ============================================ -->
  <!-- ARROWS: Actor → Entity interactions -->
  <!-- ============================================ -->

  <!-- ========== CLIENT (green) arrows ========== -->
  <!-- Client → conversations -->
  <path d="M 320 180 C 360 180, 380 164, 420 164" fill="none" stroke="#059669" stroke-width="1.8" marker-end="url(#arrow-client)"/>
  <text x="365" y="172" font-size="8" fill="#059669" text-anchor="middle">inicia chat</text>

  <!-- Client → messages -->
  <path d="M 320 190 C 370 210, 520 210, 615 186" fill="none" stroke="#059669" stroke-width="1.8" marker-end="url(#arrow-client)"/>
  <text x="500" y="215" font-size="8" fill="#059669" text-anchor="middle">envía mensajes</text>

  <!-- Client → trips -->
  <path d="M 320 200 C 380 230, 750 220, 810 164" fill="none" stroke="#059669" stroke-width="1.8" marker-end="url(#arrow-client)"/>
  <text x="630" y="230" font-size="8" fill="#059669" text-anchor="middle">confirma / reserva</text>

  <!-- ========== DRIVER (amber) arrows ========== -->
  <!-- Driver → drivers (self-registers) -->
  <path d="M 320 380 C 660 380, 1005 188, 1005 170" fill="none" stroke="#d97706" stroke-width="1.8" marker-end="url(#arrow-driver)"/>
  <text x="660" y="375" font-size="8" fill="#d97706" text-anchor="middle">se registra / actualiza perfil</text>

  <!-- Driver → trips (accepts) -->
  <path d="M 320 400 C 380 420, 780 400, 897 188" fill="none" stroke="#d97706" stroke-width="1.8" marker-end="url(#arrow-driver)"/>
  <text x="630" y="415" font-size="8" fill="#d97706" text-anchor="middle">acepta viaje</text>

  <!-- Driver → driver_codes -->
  <path d="M 320 410 C 400 450, 810 280, 897 230" fill="none" stroke="#d97706" stroke-width="1.8" marker-end="url(#arrow-driver)"/>
  <text x="630" y="450" font-size="8" fill="#d97706" text-anchor="middle">usa código registro</text>

  <!-- Driver → package_prices -->
  <path d="M 320 420 C 400 460, 640 380, 702 304" fill="none" stroke="#d97706" stroke-width="1.8" marker-end="url(#arrow-driver)"/>
  <text x="520" y="450" font-size="8" fill="#d97706" text-anchor="middle">configura precios paquete</text>

  <!-- Driver → driver_discounts -->
  <path d="M 320 430 C 400 470, 780 420, 897 304" fill="none" stroke="#d97706" stroke-width="1.8" marker-end="url(#arrow-driver)"/>
  <text x="650" y="470" font-size="8" fill="#d97706" text-anchor="middle">crea descuentos</text>

  <!-- ========== ADMIN (purple) arrows ========== -->
  <!-- Admin → conversations (takeover) -->
  <path d="M 320 580 C 360 580, 380 500, 507 188" fill="none" stroke="#7c3aed" stroke-width="1.8" marker-end="url(#arrow-admin)"/>
  <text x="380" y="550" font-size="8" fill="#7c3aed" text-anchor="middle">toma/libera chat</text>

  <!-- Admin → messages (send as human) -->
  <path d="M 320 595 C 370 620, 550 550, 702 188" fill="none" stroke="#7c3aed" stroke-width="1.8" marker-end="url(#arrow-admin)"/>
  <text x="520" y="600" font-size="8" fill="#7c3aed" text-anchor="middle">envía como humano</text>

  <!-- Admin → drivers (create) -->
  <path d="M 320 610 C 400 640, 800 500, 1092 188" fill="none" stroke="#7c3aed" stroke-width="1.8" marker-end="url(#arrow-admin)"/>
  <text x="700" y="630" font-size="8" fill="#7c3aed" text-anchor="middle">crea / desactiva choferes</text>

  <!-- Admin → driver_codes -->
  <path d="M 320 625 C 400 660, 740 550, 897 236" fill="none" stroke="#7c3aed" stroke-width="1.8" marker-end="url(#arrow-admin)"/>
  <text x="600" y="650" font-size="8" fill="#7c3aed" text-anchor="middle">genera códigos</text>

  <!-- Admin → reservation_slots -->
  <path d="M 320 640 C 400 680, 800 580, 1092 260" fill="none" stroke="#7c3aed" stroke-width="1.8" marker-end="url(#arrow-admin)"/>
  <text x="720" y="670" font-size="8" fill="#7c3aed" text-anchor="middle">CRUD slots</text>

  <!-- Admin → connection_state -->
  <path d="M 320 650 C 400 690, 840 620, 1092 304" fill="none" stroke="#7c3aed" stroke-width="1.8" marker-end="url(#arrow-admin)"/>
  <text x="780" y="690" font-size="8" fill="#7c3aed" text-anchor="middle">ver QR / estado</text>

  <!-- ========== AI BOT (cyan) arrows ========== -->
  <!-- Bot → conversations -->
  <path d="M 320 780 C 360 780, 380 300, 507 188" fill="none" stroke="#0891b2" stroke-width="1.8" marker-end="url(#arrow-bot)"/>
  <text x="380" y="580" font-size="8" fill="#0891b2" text-anchor="middle">responde en chat</text>

  <!-- Bot → messages -->
  <path d="M 320 795 C 370 820, 550 750, 702 188" fill="none" stroke="#0891b2" stroke-width="1.8" marker-end="url(#arrow-bot)"/>
  <text x="530" y="780" font-size="8" fill="#0891b2" text-anchor="middle">envía respuestas IA</text>

  <!-- Bot → trips -->
  <path d="M 320 810 C 380 840, 750 800, 897 188" fill="none" stroke="#0891b2" stroke-width="1.8" marker-end="url(#arrow-bot)"/>
  <text x="640" y="830" font-size="8" fill="#0891b2" text-anchor="middle">crea viaje, calcula precio</text>

  <!-- Bot → tariffs -->
  <path d="M 320 825 C 380 850, 580 780, 702 236" fill="none" stroke="#0891b2" stroke-width="1.8" marker-end="url(#arrow-bot)"/>
  <text x="520" y="840" font-size="8" fill="#0891b2" text-anchor="middle">consulta tarifas</text>

  <!-- Bot → client_preferred_drivers -->
  <path d="M 320 840 C 380 870, 500 820, 507 304" fill="none" stroke="#0891b2" stroke-width="1.8" marker-end="url(#arrow-bot)"/>
  <text x="420" y="860" font-size="8" fill="#0891b2" text-anchor="middle">verifica preferencias</text>

  <!-- ========== SYSTEM (stone) arrows ========== -->
  <!-- System → workflows (timeouts) -->
  <path d="M 320 960 C 360 960, 380 300, 507 236" fill="none" stroke="#78716c" stroke-width="1.8" marker-end="url(#arrow-system)"/>
  <text x="380" y="700" font-size="8" fill="#78716c" text-anchor="middle">gestiona timeouts</text>

  <!-- System → trips (surveys) -->
  <path d="M 320 975 C 380 1000, 780 950, 897 188" fill="none" stroke="#78716c" stroke-width="1.8" marker-end="url(#arrow-system)"/>
  <text x="650" y="985" font-size="8" fill="#78716c" text-anchor="middle">envía encuestas post-viaje</text>

  <!-- System → drivers (broadcast) -->
  <path d="M 320 990 C 400 1020, 800 950, 1092 188" fill="none" stroke="#78716c" stroke-width="1.8" marker-end="url(#arrow-system)"/>
  <text x="720" y="1010" font-size="8" fill="#78716c" text-anchor="middle">broadcast de viajes</text>

  <!-- System → connection_state -->
  <path d="M 320 1005 C 400 1040, 840 980, 1092 304" fill="none" stroke="#78716c" stroke-width="1.8" marker-end="url(#arrow-system)"/>
  <text x="780" y="1030" font-size="8" fill="#78716c" text-anchor="middle">gestiona reconexión</text>

  <!-- ============================================ -->
  <!-- LEGEND -->
  <!-- ============================================ -->
  <rect x="420" y="1060" width="760" height="100" rx="8" fill="white" stroke="#e2e8f0" stroke-width="1.5"/>
  <text x="800" y="1080" text-anchor="middle" font-size="12" font-weight="bold" fill="#475569">Leyenda de cardinalidades entre entidades</text>

  <line x1="440" y1="1100" x2="490" y2="1100" stroke="#64748b" stroke-width="1.5" stroke-dasharray="4,3"/>
  <text x="495" y="1104" font-size="10" fill="#475569">Relación 1 a N (uno a muchos)</text>

  <line x1="650" y1="1100" x2="700" y2="1100" stroke="#64748b" stroke-width="1.5" stroke-dasharray="4,3"/>
  <text x="705" y="1104" font-size="10" fill="#475569">Relación 1 a 1 (uno a uno)</text>

  <line x1="860" y1="1100" x2="910" y2="1100" stroke="#64748b" stroke-width="1.5"/>
  <text x="915" y="1104" font-size="10" fill="#475569">Línea de actor a entidad</text>

  <rect x="440" y="1120" width="12" height="12" rx="2" fill="url(#g-client)"/>
  <text x="457" y="1131" font-size="9" fill="#475569">Cliente</text>
  <rect x="515" y="1120" width="12" height="12" rx="2" fill="url(#g-driver)"/>
  <text x="532" y="1131" font-size="9" fill="#475569">Chofer</text>
  <rect x="590" y="1120" width="12" height="12" rx="2" fill="url(#g-admin)"/>
  <text x="607" y="1131" font-size="9" fill="#475569">Admin</text>
  <rect x="665" y="1120" width="12" height="12" rx="2" fill="url(#g-bot)"/>
  <text x="682" y="1131" font-size="9" fill="#475569">Bot IA</text>
  <rect x="740" y="1120" width="12" height="12" rx="2" fill="url(#g-system)"/>
  <text x="757" y="1131" font-size="9" fill="#475569">Sistema</text>

</svg>
