<svg xmlns="http://www.w3.org/2000/svg" viewBox="0 0 1400 1100" font-family="system-ui, -apple-system, sans-serif">
  <defs>
    <linearGradient id="g-layer1" x1="0%" y1="0%" x2="0%" y2="100%">
      <stop offset="0%" style="stop-color:#0f172a;stop-opacity:1"/>
      <stop offset="100%" style="stop-color:#1e293b;stop-opacity:1"/>
    </linearGradient>
    <linearGradient id="g-layer2" x1="0%" y1="0%" x2="0%" y2="100%">
      <stop offset="0%" style="stop-color:#1e3a5f;stop-opacity:1"/>
      <stop offset="100%" style="stop-color:#1e4d7a;stop-opacity:1"/>
    </linearGradient>
    <linearGradient id="g-layer3" x1="0%" y1="0%" x2="0%" y2="100%">
      <stop offset="0%" style="stop-color:#065f46;stop-opacity:1"/>
      <stop offset="100%" style="stop-color:#047857;stop-opacity:1"/>
    </linearGradient>
    <linearGradient id="g-layer4" x1="0%" y1="0%" x2="0%" y2="100%">
      <stop offset="0%" style="stop-color:#6d28d9;stop-opacity:1"/>
      <stop offset="100%" style="stop-color:#7c3aed;stop-opacity:1"/>
    </linearGradient>
    <linearGradient id="g-layer5" x1="0%" y1="0%" x2="0%" y2="100%">
      <stop offset="0%" style="stop-color:#b45309;stop-opacity:1"/>
      <stop offset="100%" style="stop-color:#d97706;stop-opacity:1"/>
    </linearGradient>
    <linearGradient id="g-layer6" x1="0%" y1="0%" x2="0%" y2="100%">
      <stop offset="0%" style="stop-color:#881337;stop-opacity:1"/>
      <stop offset="100%" style="stop-color:#9f1239;stop-opacity:1"/>
    </linearGradient>
    <filter id="shadow" x="-5%" y="-5%" width="110%" height="110%">
      <feDropShadow dx="2" dy="4" stdDeviation="6" flood-opacity="0.2"/>
    </filter>
    <filter id="shadow-light" x="-5%" y="-5%" width="110%" height="110%">
      <feDropShadow dx="1" dy="2" stdDeviation="3" flood-opacity="0.12"/>
    </filter>
    <marker id="arrow-down" markerWidth="10" markerHeight="7" refX="5" refY="3.5" orient="auto">
      <polygon points="0 0, 10 3.5, 0 7" fill="#94a3b8"/>
    </marker>
    <marker id="arrow-up" markerWidth="10" markerHeight="7" refX="5" refY="3.5" orient="auto">
      <polygon points="10 0, 0 3.5, 10 7" fill="#94a3b8"/>
    </marker>
  </defs>

  <!-- Background -->
  <rect width="1400" height="1100" fill="#f8fafc" rx="8"/>
  <rect x="15" y="15" width="1370" height="1070" fill="none" stroke="#e2e8f0" stroke-width="2" rx="8"/>

  <!-- Title -->
  <text x="700" y="55" text-anchor="middle" font-size="24" font-weight="bold" fill="#0f172a">Stack Tecnológico — Bot WhatsApp TaxiGuazú</text>
  <text x="700" y="78" text-anchor="middle" font-size="12" fill="#64748b">Arquitectura en capas del sistema de chatbot con IA</text>

  <!-- ============================================ -->
  <!-- LAYER 6: PRESENTACIÓN (top) -->
  <!-- ============================================ -->
  <rect x="40" y="100" width="1320" height="130" rx="10" fill="white" stroke="#0f172a" stroke-width="2" filter="url(#shadow)"/>
  <rect x="40" y="100" width="1320" height="34" rx="10" fill="url(#g-layer1)"/>
  <rect x="40" y="124" width="1320" height="10" fill="url(#g-layer1)"/>
  <text x="700" y="123" text-anchor="middle" font-size="14" font-weight="bold" fill="white">📱 Capa de Presentación</text>

  <!-- WhatsApp -->
  <rect x="80" y="150" width="260" height="60" rx="8" fill="#f0f9ff" stroke="#0284c7" stroke-width="1.5" filter="url(#shadow-light)"/>
  <text x="210" y="174" text-anchor="middle" font-size="13" font-weight="bold" fill="#0369a1">WhatsApp Business API</text>
  <text x="210" y="192" text-anchor="middle" font-size="10" fill="#475569">Meta Cloud API v18.0</text>
  <text x="210" y="204" text-anchor="middle" font-size="9" fill="#64748b">Webhooks + Messages</text>

  <!-- Dashboard Web -->
  <rect x="380" y="150" width="260" height="60" rx="8" fill="#fefce8" stroke="#ca8a04" stroke-width="1.5" filter="url(#shadow-light)"/>
  <text x="510" y="174" text-anchor="middle" font-size="13" font-weight="bold" fill="#a16207">Admin Dashboard Web</text>
  <text x="510" y="192" text-anchor="middle" font-size="10" fill="#475569">React 18 + Tailwind CSS 4</text>
  <text x="510" y="204" text-anchor="middle" font-size="9" fill="#64748b">Next.js App Router (SSR)</text>

  <!-- Interfaz del chofer -->
  <rect x="680" y="150" width="260" height="60" rx="8" fill="#f0fdf4" stroke="#16a34a" stroke-width="1.5" filter="url(#shadow-light)"/>
  <text x="810" y="174" text-anchor="middle" font-size="13" font-weight="bold" fill="#15803d">Interfaz del Chofer</text>
  <text x="810" y="192" text-anchor="middle" font-size="10" fill="#475569">Menús interactivos WhatsApp</text>
  <text x="810" y="204" text-anchor="middle" font-size="9" fill="#64748b">Botones ✅ Aceptar / Encuestas</text>

  <!-- Cliente -->
  <rect x="980" y="150" width="260" height="60" rx="8" fill="#fff1f2" stroke="#e11d48" stroke-width="1.5" filter="url(#shadow-light)"/>
  <text x="1110" y="174" text-anchor="middle" font-size="13" font-weight="bold" fill="#be123c">Interfaz del Cliente</text>
  <text x="1110" y="192" text-anchor="middle" font-size="10" fill="#475569">Chat conversacional WhatsApp</text>
  <text x="1110" y="204" text-anchor="middle" font-size="9" fill="#64748b">Texto libre + menús interactivos</text>

  <!-- Arrows down from layer 6 -->
  <line x1="210" y1="210" x2="210" y2="255" stroke="#94a3b8" stroke-width="1.5" marker-end="url(#arrow-down)"/>
  <line x1="510" y1="210" x2="510" y2="255" stroke="#94a3b8" stroke-width="1.5" marker-end="url(#arrow-down)"/>
  <line x1="810" y1="210" x2="810" y2="255" stroke="#94a3b8" stroke-width="1.5" marker-end="url(#arrow-down)"/>
  <line x1="1110" y1="210" x2="1110" y2="255" stroke="#94a3b8" stroke-width="1.5" marker-end="url(#arrow-down)"/>

  <!-- ============================================ -->
  <!-- LAYER 5: API / RUTAS (Next.js) -->
  <!-- ============================================ -->
  <rect x="40" y="260" width="1320" height="130" rx="10" fill="white" stroke="#1e3a5f" stroke-width="2" filter="url(#shadow)"/>
  <rect x="40" y="260" width="1320" height="34" rx="10" fill="url(#g-layer2)"/>
  <rect x="40" y="284" width="1320" height="10" fill="url(#g-layer2)"/>
  <text x="700" y="283" text-anchor="middle" font-size="14" font-weight="bold" fill="white">🌐 Capa de API (Next.js 15 — App Router)</text>

  <!-- Webhook -->
  <rect x="80" y="310" width="195" height="60" rx="8" fill="#e0f2fe" stroke="#0ea5e9" stroke-width="1.5" filter="url(#shadow-light)"/>
  <text x="177" y="334" text-anchor="middle" font-size="11" font-weight="bold" fill="#0369a1">WhatsApp Webhook</text>
  <text x="177" y="350" text-anchor="middle" font-size="9" fill="#475569">POST /api/whatsapp/webhook</text>
  <text x="177" y="362" text-anchor="middle" font-size="9" fill="#475569">GET → verify_token</text>

  <!-- Bot API -->
  <rect x="300" y="310" width="195" height="60" rx="8" fill="#e0f2fe" stroke="#0ea5e9" stroke-width="1.5" filter="url(#shadow-light)"/>
  <text x="397" y="334" text-anchor="middle" font-size="11" font-weight="bold" fill="#0369a1">Bot API Routes</text>
  <text x="397" y="350" text-anchor="middle" font-size="9" fill="#475569">/api/bot/conversations</text>
  <text x="397" y="362" text-anchor="middle" font-size="9" fill="#475569">/api/bot/messages/:id</text>

  <!-- Admin API -->
  <rect x="520" y="310" width="195" height="60" rx="8" fill="#e0f2fe" stroke="#0ea5e9" stroke-width="1.5" filter="url(#shadow-light)"/>
  <text x="617" y="334" text-anchor="middle" font-size="11" font-weight="bold" fill="#0369a1">Admin API Routes</text>
  <text x="617" y="350" text-anchor="middle" font-size="9" fill="#475569">/api/bot/connection/status</text>
  <text x="617" y="362" text-anchor="middle" font-size="9" fill="#475569">/api/bot/simulate</text>

  <!-- Dashboard Page -->
  <rect x="740" y="310" width="195" height="60" rx="8" fill="#e0f2fe" stroke="#0ea5e9" stroke-width="1.5" filter="url(#shadow-light)"/>
  <text x="837" y="334" text-anchor="middle" font-size="11" font-weight="bold" fill="#0369a1">Dashboard Page</text>
  <text x="837" y="350" text-anchor="middle" font-size="9" fill="#475569">GET /</text>
  <text x="837" y="362" text-anchor="middle" font-size="9" fill="#475569">Server Components</text>

  <!-- TypeScript + Zod -->
  <rect x="960" y="310" width="280" height="60" rx="8" fill="#faf5ff" stroke="#a855f7" stroke-width="1.5" filter="url(#shadow-light)"/>
  <text x="1100" y="334" text-anchor="middle" font-size="11" font-weight="bold" fill="#7e22ce">TypeScript 5 + Zod 4</text>
  <text x="1100" y="350" text-anchor="middle" font-size="9" fill="#475569">Tipado estático en toda la app</text>
  <text x="1100" y="362" text-anchor="middle" font-size="9" fill="#475569">Validación de schemas en runtime</text>

  <!-- Arrows down -->
  <line x1="177" y1="370" x2="177" y2="415" stroke="#94a3b8" stroke-width="1.5" marker-end="url(#arrow-down)"/>
  <line x1="397" y1="370" x2="397" y2="415" stroke="#94a3b8" stroke-width="1.5" marker-end="url(#arrow-down)"/>
  <line x1="617" y1="370" x2="617" y2="415" stroke="#94a3b8" stroke-width="1.5" marker-end="url(#arrow-down)"/>
  <line x1="1100" y1="370" x2="1100" y2="415" stroke="#94a3b8" stroke-width="1.5" marker-end="url(#arrow-down)"/>

  <!-- ============================================ -->
  <!-- LAYER 4: LÓGICA DE NEGOCIO -->
  <!-- ============================================ -->
  <rect x="40" y="420" width="1320" height="130" rx="10" fill="white" stroke="#065f46" stroke-width="2" filter="url(#shadow)"/>
  <rect x="40" y="420" width="1320" height="34" rx="10" fill="url(#g-layer3)"/>
  <rect x="40" y="444" width="1320" height="10" fill="url(#g-layer3)"/>
  <text x="700" y="443" text-anchor="middle" font-size="14" font-weight="bold" fill="white">⚙️ Capa de Lógica de Negocio</text>

  <!-- Message Handler -->
  <rect x="80" y="470" width="240" height="60" rx="8" fill="#d1fae5" stroke="#10b981" stroke-width="1.5" filter="url(#shadow-light)"/>
  <text x="200" y="494" text-anchor="middle" font-size="11" font-weight="bold" fill="#047857">Message Handler</text>
  <text x="200" y="510" text-anchor="middle" font-size="9" fill="#475569">handleLeadMessage()</text>
  <text x="200" y="522" text-anchor="middle" font-size="9" fill="#475569">Clasifica y dirige mensajes</text>

  <!-- IA Service -->
  <rect x="345" y="470" width="240" height="60" rx="8" fill="#d1fae5" stroke="#10b981" stroke-width="1.5" filter="url(#shadow-light)"/>
  <text x="465" y="494" text-anchor="middle" font-size="11" font-weight="bold" fill="#047857">AI Assistant Service</text>
  <text x="465" y="510" text-anchor="middle" font-size="9" fill="#475569">Genera respuestas con Groq LLM</text>
  <text x="465" y="522" text-anchor="middle" font-size="9" fill="#475569">Extrae datos con regex markers</text>

  <!-- Trip Service -->
  <rect x="610" y="470" width="240" height="60" rx="8" fill="#d1fae5" stroke="#10b981" stroke-width="1.5" filter="url(#shadow-light)"/>
  <text x="730" y="494" text-anchor="middle" font-size="11" font-weight="bold" fill="#047857">Trip / Workflow Service</text>
  <text x="730" y="510" text-anchor="middle" font-size="9" fill="#475569">createTrip(), escalateTrip()</text>
  <text x="730" y="522" text-anchor="middle" font-size="9" fill="#475569">broadcastTripToDrivers()</text>

  <!-- Admin Commands -->
  <rect x="875" y="470" width="240" height="60" rx="8" fill="#d1fae5" stroke="#10b981" stroke-width="1.5" filter="url(#shadow-light)"/>
  <text x="995" y="494" text-anchor="middle" font-size="11" font-weight="bold" fill="#047857">Admin Command Handler</text>
  <text x="995" y="510" text-anchor="middle" font-size="9" fill="#475569">handleAdminCommand()</text>
  <text x="995" y="522" text-anchor="middle" font-size="9" fill="#475569">add_chofer, set_tier, slots CRUD</text>

  <!-- Timeout/Survey -->
  <rect x="1140" y="470" width="110" height="60" rx="8" fill="#d1fae5" stroke="#10b981" stroke-width="1.5" filter="url(#shadow-light)"/>
  <text x="1195" y="494" text-anchor="middle" font-size="10" font-weight="bold" fill="#047857">System Jobs</text>
  <text x="1195" y="510" text-anchor="middle" font-size="9" fill="#475569">checkTimeouts()</text>
  <text x="1195" y="522" text-anchor="middle" font-size="9" fill="#475569">sendPendingSurveys()</text>

  <!-- Arrows down -->
  <line x1="200" y1="530" x2="200" y2="575" stroke="#94a3b8" stroke-width="1.5" marker-end="url(#arrow-down)"/>
  <line x1="465" y1="530" x2="465" y2="575" stroke="#94a3b8" stroke-width="1.5" marker-end="url(#arrow-down)"/>
  <line x1="730" y1="530" x2="730" y2="575" stroke="#94a3b8" stroke-width="1.5" marker-end="url(#arrow-down)"/>
  <line x1="1195" y1="530" x2="1195" y2="575" stroke="#94a3b8" stroke-width="1.5" marker-end="url(#arrow-down)"/>

  <!-- ============================================ -->
  <!-- LAYER 3: SERVICIOS EXTERNOS -->
  <!-- ============================================ -->
  <rect x="40" y="580" width="1320" height="130" rx="10" fill="white" stroke="#6d28d9" stroke-width="2" filter="url(#shadow)"/>
  <rect x="40" y="580" width="1320" height="34" rx="10" fill="url(#g-layer4)"/>
  <rect x="40" y="604" width="1320" height="10" fill="url(#g-layer4)"/>
  <text x="700" y="603" text-anchor="middle" font-size="14" font-weight="bold" fill="white">🔌 Capa de Servicios Externos</text>

  <!-- Groq LLM -->
  <rect x="80" y="630" width="300" height="60" rx="8" fill="#f3e8ff" stroke="#9333ea" stroke-width="1.5" filter="url(#shadow-light)"/>
  <rect x="80" y="630" width="6" height="60" rx="3" fill="#a855f7"/>
  <text x="230" y="654" text-anchor="middle" font-size="12" font-weight="bold" fill="#6b21a8">Groq SDK</text>
  <text x="230" y="670" text-anchor="middle" font-size="9" fill="#475569">LLM: llama-3.3-70b-versatile</text>
  <text x="230" y="682" text-anchor="middle" font-size="9" fill="#475569">Inferencia rápida de IA</text>

  <!-- Meta WhatsApp -->
  <rect x="410" y="630" width="300" height="60" rx="8" fill="#fce7f3" stroke="#db2777" stroke-width="1.5" filter="url(#shadow-light)"/>
  <rect x="410" y="630" width="6" height="60" rx="3" fill="#ec4899"/>
  <text x="560" y="654" text-anchor="middle" font-size="12" font-weight="bold" fill="#be185d">Meta WhatsApp Cloud API</text>
  <text x="560" y="670" text-anchor="middle" font-size="9" fill="#475569">Envío/recepción de mensajes</text>
  <text x="560" y="682" text-anchor="middle" font-size="9" fill="#475569">Axios HTTP Client</text>

  <!-- Turso DB -->
  <rect x="740" y="630" width="300" height="60" rx="8" fill="#ecfeff" stroke="#0891b2" stroke-width="1.5" filter="url(#shadow-light)"/>
  <rect x="740" y="630" width="6" height="60" rx="3" fill="#06b6d4"/>
  <text x="890" y="654" text-anchor="middle" font-size="12" font-weight="bold" fill="#155e75">Turso (libSQL / SQLite)</text>
  <text x="890" y="670" text-anchor="middle" font-size="9" fill="#475569">Base de datos serverless</text>
  <text x="890" y="682" text-anchor="middle" font-size="9" fill="#475569">@libsql/client + fallback local</text>

  <!-- Axios -->
  <rect x="1070" y="630" width="180" height="60" rx="8" fill="#fff7ed" stroke="#ea580c" stroke-width="1.5" filter="url(#shadow-light)"/>
  <rect x="1070" y="630" width="6" height="60" rx="3" fill="#f97316"/>
  <text x="1160" y="654" text-anchor="middle" font-size="12" font-weight="bold" fill="#9a3412">Axios</text>
  <text x="1160" y="670" text-anchor="middle" font-size="9" fill="#475569">HTTP client</text>
  <text x="1160" y="682" text-anchor="middle" font-size="9" fill="#475569">Llamadas REST externas</text>

  <!-- Arrows down -->
  <line x1="230" y1="690" x2="230" y2="735" stroke="#94a3b8" stroke-width="1.5" marker-end="url(#arrow-down)"/>
  <line x1="560" y1="690" x2="560" y2="735" stroke="#94a3b8" stroke-width="1.5" marker-end="url(#arrow-down)"/>
  <line x1="890" y1="690" x2="890" y2="735" stroke="#94a3b8" stroke-width="1.5" marker-end="url(#arrow-down)"/>

  <!-- ============================================ -->
  <!-- LAYER 2: PERSISTENCIA -->
  <!-- ============================================ -->
  <rect x="40" y="740" width="1320" height="130" rx="10" fill="white" stroke="#b45309" stroke-width="2" filter="url(#shadow)"/>
  <rect x="40" y="740" width="1320" height="34" rx="10" fill="url(#g-layer5)"/>
  <rect x="40" y="764" width="1320" height="10" fill="url(#g-layer5)"/>
  <text x="700" y="763" text-anchor="middle" font-size="14" font-weight="bold" fill="white">💾 Capa de Persistencia</text>

  <!-- Entity groups -->
  <rect x="80" y="790" width="250" height="60" rx="8" fill="#fef3c7" stroke="#d97706" stroke-width="1.5" filter="url(#shadow-light)"/>
  <text x="205" y="814" text-anchor="middle" font-size="11" font-weight="bold" fill="#92400e">Comunicación</text>
  <text x="205" y="832" text-anchor="middle" font-size="9" fill="#475569">conversations · messages</text>

  <rect x="355" y="790" width="250" height="60" rx="8" fill="#fef3c7" stroke="#d97706" stroke-width="1.5" filter="url(#shadow-light)"/>
  <text x="480" y="814" text-anchor="middle" font-size="11" font-weight="bold" fill="#92400e">Viajes y Estados</text>
  <text x="480" y="832" text-anchor="middle" font-size="9" fill="#475569">trips · workflows</text>

  <rect x="630" y="790" width="250" height="60" rx="8" fill="#fef3c7" stroke="#d97706" stroke-width="1.5" filter="url(#shadow-light)"/>
  <text x="755" y="814" text-anchor="middle" font-size="11" font-weight="bold" fill="#92400e">Choferes y Tarifas</text>
  <text x="755" y="832" text-anchor="middle" font-size="9" fill="#475569">drivers · tariffs · driver_codes</text>

  <rect x="905" y="790" width="335" height="60" rx="8" fill="#fef3c7" stroke="#d97706" stroke-width="1.5" filter="url(#shadow-light)"/>
  <text x="1072" y="814" text-anchor="middle" font-size="11" font-weight="bold" fill="#92400e">Configuración y Preferencias</text>
  <text x="1072" y="832" text-anchor="middle" font-size="9" fill="#475569">reservation_slots · package_prices · driver_discounts</text>
  <text x="1072" y="844" text-anchor="middle" font-size="9" fill="#475569">client_preferred_drivers · connection_state</text>

  <!-- Arrows down -->
  <line x1="205" y1="850" x2="205" y2="895" stroke="#94a3b8" stroke-width="1.5" marker-end="url(#arrow-down)"/>
  <line x1="480" y1="850" x2="480" y2="895" stroke="#94a3b8" stroke-width="1.5" marker-end="url(#arrow-down)"/>
  <line x1="755" y1="850" x2="755" y2="895" stroke="#94a3b8" stroke-width="1.5" marker-end="url(#arrow-down)"/>
  <line x1="1072" y1="850" x2="1072" y2="895" stroke="#94a3b8" stroke-width="1.5" marker-end="url(#arrow-down)"/>

  <!-- ============================================ -->
  <!-- LAYER 1: INFRAESTRUCTURA (bottom) -->
  <!-- ============================================ -->
  <rect x="40" y="900" width="1320" height="130" rx="10" fill="white" stroke="#881337" stroke-width="2" filter="url(#shadow)"/>
  <rect x="40" y="900" width="1320" height="34" rx="10" fill="url(#g-layer6)"/>
  <rect x="40" y="924" width="1320" height="10" fill="url(#g-layer6)"/>
  <text x="700" y="923" text-anchor="middle" font-size="14" font-weight="bold" fill="white">☁️ Capa de Infraestructura</text>

  <!-- Vercel -->
  <rect x="80" y="950" width="370" height="60" rx="8" fill="#fce7f3" stroke="#ec4899" stroke-width="1.5" filter="url(#shadow-light)"/>
  <rect x="80" y="950" width="6" height="60" rx="3" fill="#f43f5e"/>
  <text x="265" y="974" text-anchor="middle" font-size="12" font-weight="bold" fill="#be185d">Vercel (Hosting Principal)</text>
  <text x="265" y="992" text-anchor="middle" font-size="9" fill="#475569">Serverless Functions + Edge Network + SSR</text>

  <!-- Railway -->
  <rect x="480" y="950" width="370" height="60" rx="8" fill="#fef3c7" stroke="#f59e0b" stroke-width="1.5" filter="url(#shadow-light)"/>
  <rect x="480" y="950" width="6" height="60" rx="3" fill="#eab308"/>
  <text x="665" y="974" text-anchor="middle" font-size="12" font-weight="bold" fill="#b45309">Railway (Alternativo)</text>
  <text x="665" y="992" text-anchor="middle" font-size="9" fill="#475569">Hosting secundario / fallback</text>

  <!-- SQLite Local -->
  <rect x="880" y="950" width="370" height="60" rx="8" fill="#e0f2fe" stroke="#0ea5e9" stroke-width="1.5" filter="url(#shadow-light)"/>
  <rect x="880" y="950" width="6" height="60" rx="3" fill="#38bdf8"/>
  <text x="1065" y="974" text-anchor="middle" font-size="12" font-weight="bold" fill="#0369a1">SQLite Local (Desarrollo)</text>
  <text x="1065" y="992" text-anchor="middle" font-size="9" fill="#475569">Base de datos embebida para dev/test</text>

  <!-- ============================================ -->
  <!-- FLECHAS LATERALES: flujo de datos -->
  <!-- ============================================ -->
  
  <!-- Flujo izquierdo: entra por webhook -->
  <path d="M 15 165 L 40 165" stroke="#0ea5e9" stroke-width="3"/>
  <text x="-65" y="160" text-anchor="middle" font-size="10" fill="#0ea5e9" font-weight="bold" transform="rotate(-90, -65, 160)">MENSAJES ENTRANTES (Webhook)</text>

  <!-- Flujo derecho: sale por API -->
  <path d="M 1360 165 L 1385 165" stroke="#f43f5e" stroke-width="3"/>
  <text x="1410" y="160" text-anchor="middle" font-size="10" fill="#f43f5e" font-weight="bold" transform="rotate(90, 1410, 160)">MENSAJES SALIENTES (WhatsApp API)</text>

  <!-- ============================================ -->
  <!-- LEYENDA -->
  <!-- ============================================ -->
  <rect x="40" y="1045" width="1320" height="30" rx="6" fill="#f1f5f9" stroke="#e2e8f0" stroke-width="1"/>
  <text x="700" y="1065" text-anchor="middle" font-size="10" fill="#64748b">
    TypeScript 5 · Next.js 15 App Router · React 18 · Tailwind CSS 4 · Groq (llama-3.3-70b) · Meta WhatsApp Cloud API v18 · Turso libSQL · Zod 4 · Axios · Vercel
  </text>

</svg>
